<svg preserveAspectRatio="none" width="100%" height="100%" overflow="visible" style="display: block;" viewBox="0 0 104 74" fill="none" xmlns="http://www.w3.org/2000/svg">
<path id="Vector" fill-rule="evenodd" clip-rule="evenodd" d="M50.4608 73.3422V66.555C50.4608 65.3509 50.4608 63.2708 46.3929 63.2708C44.9639 63.2708 43.8643 63.5994 43.3145 63.7091C42.6551 63.928 42.4346 64.2566 42.4346 64.5846V73.3422C42.4346 73.6708 42.5448 73.7805 42.7646 73.7805H43.7541C44.0841 73.7805 44.1937 73.6708 44.1937 73.3422V65.2418C44.1937 64.8034 44.9633 64.3663 46.3923 64.3663C48.7011 64.3663 48.7011 65.7892 48.7011 66.7738V73.3416C48.7011 73.6702 48.8113 73.7799 49.1407 73.7799H50.2404C50.4608 73.6708 50.4608 73.5611 50.4608 73.3422ZM60.9047 68.6351C60.9047 66.3361 60.2459 64.8034 59.0355 64.0377C58.3767 63.4902 57.3867 63.2708 56.5075 63.2708C55.5174 63.2708 54.6382 63.4896 53.868 64.0377C52.769 64.8034 51.9994 66.3361 51.9994 68.6351C51.9994 71.0426 52.769 72.5752 53.868 73.3422C54.6382 73.7805 55.5168 73.9994 56.5075 73.9994C57.3867 73.9994 58.3767 73.7805 59.0355 73.3422C60.2459 72.5752 60.9047 71.0432 60.9047 68.6351ZM59.1457 68.6351C59.1457 70.4963 58.7067 71.6998 58.1569 72.2479C57.6071 72.7941 57.1681 72.9038 56.5081 72.9038C55.7379 72.9038 55.2989 72.7941 54.7491 72.2479C54.1992 71.7004 53.7603 70.4963 53.7603 68.6351C53.7603 66.7738 54.1992 65.5704 54.7491 65.0223C55.2989 64.5839 55.7379 64.3663 56.5081 64.3663C57.1681 64.3663 57.6071 64.5839 58.1569 65.0223C58.7067 65.5704 59.1457 66.7744 59.1457 68.6351ZM68.0511 64.2572C68.0511 63.6 66.8418 63.2714 65.4116 63.2714C64.4228 63.2714 63.6526 63.4902 63.2136 63.6C62.5536 63.7097 62.2235 64.0383 62.2235 64.3669V73.4519C62.2235 73.6708 62.4433 73.7805 62.6638 73.7805H63.6526C63.8724 73.7805 64.0928 73.6708 64.0928 73.4519V65.1326C64.0928 64.5852 64.4228 64.2572 65.0828 64.2572C66.292 64.2572 66.5118 65.1326 67.1706 65.1326C67.6108 65.132 68.0511 64.9132 68.0511 64.2572ZM76.736 72.685V60.206C76.736 59.8774 76.6258 59.8774 76.406 59.8774H75.4159C75.0859 59.8774 74.977 59.9872 74.977 60.3158V63.8188C74.4271 63.4902 73.7665 63.2714 72.8879 63.2714C69.8101 63.2714 68.1607 66.227 68.1607 68.6357C68.1607 72.2485 70.1395 74 73.2179 74C74.647 73.9994 76.736 73.3422 76.736 72.685ZM74.977 72.029C74.977 72.5752 74.2067 72.9045 73.2179 72.9045C71.3487 72.9045 70.0299 71.2627 70.0299 68.5259C70.0299 66.1172 71.2391 64.4748 73.1077 64.4748C74.0965 64.4748 74.647 64.8034 74.977 65.132V72.029ZM81.023 60.6444C81.0236 60.5148 80.9984 60.3863 80.9488 60.2665C80.8993 60.1466 80.8264 60.0377 80.7343 59.9461C80.6423 59.8544 80.5329 59.7818 80.4125 59.7325C80.2922 59.6831 80.1632 59.658 80.033 59.6586C79.3742 59.6586 78.934 60.0969 78.934 60.7541C78.934 61.3004 79.3742 61.7387 80.033 61.7387C80.693 61.7387 81.1332 61.1906 81.023 60.6444ZM80.9134 73.3422V63.9286C80.9134 63.6 80.8032 63.4902 80.4732 63.4902H79.4844C79.1544 63.4902 79.1544 63.6 79.1544 63.9286V73.3422C79.1544 73.6708 79.1544 73.7805 79.3742 73.7805H80.4732C80.8032 73.7805 80.9134 73.6708 80.9134 73.3422ZM98.5025 73.5611C98.5025 73.4513 98.3923 73.3422 98.3923 73.2324L94.5455 68.3065C95.8643 67.3219 97.2933 65.7892 98.0635 64.1462C98.1725 63.9286 98.1725 63.8188 98.1725 63.7091C98.1725 63.4902 98.0635 63.4902 97.8437 63.4902H96.9633C96.5243 63.4902 96.4147 63.4902 96.3045 63.8188C95.7547 65.4606 94.3256 67.3219 92.7864 68.1973L92.6762 68.3071L92.7864 68.4168L96.3045 73.4525C96.5243 73.7811 96.5243 73.7811 96.8531 73.7811H98.2833C98.2833 73.7811 98.5025 73.6708 98.5025 73.5611ZM92.4564 73.4519V60.0969C92.4564 59.7683 92.3462 59.7683 92.0162 59.7683H91.0274C90.8076 59.7683 90.6974 59.7683 90.6974 60.0969V73.4519C90.6974 73.6708 90.6974 73.7805 91.0274 73.7805H92.0162C92.3462 73.7805 92.4564 73.7805 92.4564 73.4519ZM89.2684 70.9335C89.2684 67.6505 84.4315 68.1973 84.4315 66.0087C84.4315 65.2418 84.9801 64.4748 86.0803 64.4748C87.2895 64.4748 87.5093 65.2418 88.1694 65.2418C88.3892 65.2418 88.8282 65.0229 88.8282 64.4748C88.8282 63.7091 87.6189 63.2708 86.1899 63.2708C84.4309 63.2708 82.7821 64.2566 82.7821 66.1166C82.7821 67.8681 83.9913 68.5253 85.4203 69.1813C86.6295 69.6197 87.7291 70.058 87.7291 71.1517C87.7291 72.0284 87.0691 72.9032 85.6401 72.9032C84.2111 72.9032 83.8811 71.9186 83.2223 71.9186C82.8923 71.9186 82.4521 72.0284 82.4521 72.5746C82.4521 73.3416 83.9913 73.9988 85.6401 73.9988C87.3991 73.9994 89.2684 73.1233 89.2684 70.9335ZM8.02553 73.3422V66.555C8.02553 65.3509 7.91532 63.2708 3.95766 63.2708C2.41843 63.2708 1.42902 63.5994 0.879208 63.7091C0.219802 63.928 0 64.2566 0 64.5846V73.3422C0 73.6708 0.110207 73.7805 0.329397 73.7805H1.31881C1.64882 73.7805 1.75842 73.6708 1.75842 73.3422V65.2418C1.75842 64.8034 2.52803 64.3663 3.84745 64.3663C6.26589 64.3663 6.26589 65.7892 6.26589 66.7738V73.3416C6.26589 73.6702 6.37609 73.7799 6.7061 73.7799H7.69491C7.91532 73.6708 8.02553 73.5611 8.02553 73.3422ZM18.4695 68.6351C18.4695 66.3361 17.7005 64.8034 16.6009 64.0377C15.8313 63.4902 14.952 63.2708 13.962 63.2708C13.0828 63.2708 12.0934 63.4896 11.434 64.0377C10.2242 64.8034 9.56536 66.3361 9.56536 68.6351C9.56536 71.0426 10.2248 72.5752 11.434 73.3422C12.0934 73.7805 13.0828 73.9994 13.962 73.9994C14.9514 73.9994 15.8313 73.7805 16.6009 73.3422C17.7005 72.5752 18.4695 71.0432 18.4695 68.6351ZM16.7105 68.6351C16.7105 70.4963 16.2709 71.6998 15.721 72.2479C15.1712 72.7941 14.7316 72.9038 13.9614 72.9038C13.302 72.9038 12.8624 72.7941 12.3126 72.2479C11.7628 71.7004 11.3232 70.4963 11.3232 68.6351C11.3232 66.7738 11.7628 65.5704 12.3126 65.0223C12.8618 64.5839 13.302 64.3663 13.9614 64.3663C14.731 64.3663 15.1706 64.5839 15.721 65.0223C16.2709 65.5704 16.7105 66.7744 16.7105 68.6351ZM36.609 68.6351C36.609 66.3361 35.8393 64.8034 34.7397 64.0377C33.9701 63.4902 33.0909 63.2708 32.1015 63.2708C31.2217 63.2708 30.2323 63.4896 29.5729 64.0377C28.3636 64.8034 27.7042 66.3361 27.7042 68.6351C27.7042 71.0426 28.3643 72.5752 29.5729 73.3422C30.2329 73.7805 31.2223 73.9994 32.1015 73.9994C33.0909 73.9994 33.9701 73.7805 34.7397 73.3422C35.8393 72.5752 36.609 71.0432 36.609 68.6351ZM34.8499 68.6351C34.8499 70.4963 34.4103 71.6998 33.8605 72.2479C33.3107 72.7941 32.8711 72.9038 32.1015 72.9038C31.4415 72.9038 31.0019 72.7941 30.4527 72.2479C29.9035 71.7004 29.4633 70.4963 29.4633 68.6351C29.4633 66.7738 29.9035 65.5704 30.4527 65.0223C31.0019 64.5839 31.4421 64.3663 32.1015 64.3663C32.8711 64.3663 33.3107 64.5839 33.8605 65.0223C34.4103 65.5704 34.8499 66.7744 34.8499 68.6351ZM27.4838 63.7091C27.4838 63.4902 27.3742 63.4902 27.264 63.4902H26.2746C26.0548 63.4902 26.0548 63.6 26.0548 63.8188L23.4166 71.2621L20.7777 63.8188C20.6675 63.4902 20.5579 63.4902 20.3381 63.4902H19.1289C19.0193 63.4902 18.7989 63.4902 18.7989 63.7091C18.7989 63.8188 18.7989 63.928 18.9091 64.0377L22.5367 73.4513C22.5367 73.6702 22.6469 73.6702 22.7572 73.7799H23.5262C23.7466 73.7799 23.8562 73.6702 23.9664 73.4513L27.3742 64.0377C27.4838 63.8188 27.4838 63.7091 27.4838 63.7091ZM37.9284 15.9814C38.4782 15.6528 38.8082 15.4345 39.0274 15.2151C39.9072 14.4487 40.2372 14.8871 39.3574 16.2009C38.2584 17.9524 36.609 19.1564 34.5205 20.141C34.0809 20.3599 33.5311 20.5788 34.5205 21.0171C35.2895 21.3457 37.269 22.1114 39.0274 22.6589C40.0168 22.9875 46.8331 25.2865 53.2098 25.2865C57.9371 25.2865 62.114 24.6299 64.533 24.4104C66.292 24.3007 70.2503 23.9727 72.2279 27.4751C73.8767 30.3216 73.4383 39.5169 73.5479 41.5965C73.6569 43.0194 73.5479 55.2801 73.5479 56.2653C73.5479 57.0322 73.5479 57.5797 72.9981 57.6882H69.6999C68.8207 57.6882 68.9296 58.0168 68.9296 58.2357C68.9296 58.674 69.0399 59.2215 68.0504 59.2215H64.7522C64.312 59.2215 63.982 58.674 64.4222 57.9071C68.599 50.3541 68.2702 44.6612 65.8512 41.4867C65.6544 42.057 65.5072 42.6429 65.411 43.2382C65.0822 44.9898 64.7522 45.7567 64.312 46.0853C60.0249 49.5872 57.8257 54.7326 56.8369 57.4699C56.6171 58.0162 56.2871 57.7973 56.0666 58.0162C55.7366 58.4545 56.3967 59.2215 55.0778 59.2215H51.5592C51.0094 59.2215 50.6794 58.5643 51.2298 57.7973C52.5486 56.1555 60.2447 49.0409 59.8045 41.4867C59.8045 41.1593 59.5847 39.6261 59.2547 39.2975C59.2547 39.1883 57.9359 38.0934 55.1874 40.3924C54.8574 40.6107 54.8574 40.6107 54.4172 40.2827C53.977 40.0638 50.6794 38.8597 48.2609 39.6261C46.7217 40.0638 44.8531 42.0342 45.6227 44.9898C46.6115 49.2598 48.8107 52.8726 49.5797 57.1413C49.6899 57.9071 49.1395 57.6876 48.9203 58.0168C48.5903 58.4551 49.2503 59.2221 47.9303 59.2221H44.5231C43.9732 59.2221 43.5336 59.0032 43.9732 57.6882C44.0828 57.2511 44.1931 56.5939 44.4129 55.2807C44.5231 53.9675 44.4129 52.6525 44.1931 51.1204C43.4234 46.3054 40.675 43.8961 38.4764 42.4731C37.0473 43.4577 34.6283 50.7924 33.8593 55.719C33.7491 56.4847 33.7491 56.7036 33.7491 56.8133C33.6395 58.1265 32.9795 57.6888 32.7597 58.0174C32.4297 58.4557 32.9795 59.2227 31.6607 59.2227H28.4726C27.8126 59.2227 27.703 58.5655 28.2522 57.6888C30.231 54.0772 33.4191 48.3843 33.4191 42.364C33.4191 41.7068 33.4191 39.6273 32.4297 38.4232C30.231 35.7962 29.0218 32.7309 27.9222 30.7605C27.1526 29.3376 25.9434 29.009 25.2833 28.7901C24.5137 28.5713 23.8543 28.8999 22.9745 28.4615C22.7547 28.2427 22.2049 27.4763 21.6551 26.9289C21.2149 26.382 20.7753 25.6157 21.3251 24.9585C22.3145 23.7544 23.1937 22.8784 23.3039 22.1126C23.3039 22.0029 23.1937 21.5652 23.3039 21.3463C23.5237 20.7988 24.4035 19.8136 24.9527 19.0473C25.2827 18.7187 25.0629 18.1719 24.5131 17.5147C23.9639 16.9672 22.4247 14.7779 22.4247 11.2749C22.4247 9.85195 22.8637 9.96108 23.1937 10.8371C23.6333 11.8217 25.0629 15.9814 29.5698 17.1861C33.7503 18.2804 36.4988 17.0763 37.9284 15.9814ZM70.3587 30.1027C70.3587 30.3216 70.4689 31.7451 70.2497 34.1526C70.0299 35.6859 69.6999 36.89 69.9197 38.094C70.1395 39.1883 70.7989 43.0194 71.0187 43.348C71.2385 43.6766 71.6787 43.4577 71.6787 43.1303C71.6787 42.9115 72.0075 32.8394 71.1289 30.3222C70.7989 29.5553 70.4689 29.4455 70.3587 30.1027ZM32.6513 15.9814C37.1582 15.9814 40.6762 12.3692 40.6762 7.99069C40.6762 3.50244 37.1582 0 32.6513 0C28.2534 0 24.6258 3.50305 24.6258 7.99069C24.6258 12.3686 28.2534 15.9814 32.6513 15.9814ZM27.594 7.00489C27.594 4.0493 30.0125 1.64118 32.9807 1.64118C35.949 1.64118 38.3674 4.04991 38.3674 7.00489C38.3674 9.96047 35.949 12.3686 32.9807 12.3686C30.0125 12.3686 27.594 9.96047 27.594 7.00489ZM24.2958 21.6737C24.1862 22.0017 24.1862 22.9869 23.8562 23.4252C23.6364 23.6441 23.1968 24.3013 22.6469 24.9579C21.9869 25.8333 22.5367 26.1619 23.3064 27.038C23.9664 27.9135 25.7254 27.038 27.5934 28.4609C28.5828 29.2273 28.9128 29.8839 30.1221 31.7451C30.5617 32.4017 30.7821 32.0737 31.1115 31.1976C31.5517 29.8839 33.2005 26.4905 34.4097 24.6299C34.8493 24.0824 35.3991 23.3161 34.6295 22.7686C33.9701 22.3309 32.5411 21.6743 31.1115 20.7982C28.4732 19.3753 27.1538 18.4992 26.1644 19.2656C25.1756 20.141 24.4066 21.236 24.2958 21.6737ZM48.7017 30.9782C48.7017 32.1822 49.6918 32.4011 50.3512 32.62C52 33.0577 55.2989 32.9486 57.6065 31.8536C59.3655 31.0873 58.3767 28.0226 58.0467 27.3654C57.7167 26.5991 57.0579 26.2711 56.1775 26.3802C55.6276 26.4893 54.1986 26.4893 52.9894 26.4893C52 26.4893 51.2304 26.3802 49.5816 26.3802C48.3723 26.2705 48.4826 26.8179 48.5921 27.5843C48.8119 29.0084 48.7017 30.5404 48.7017 30.9782ZM62.6638 26.8185C63.5442 27.8037 64.0928 29.4455 64.203 30.2118C64.3132 30.8684 65.3032 30.6502 65.4122 29.993C65.6332 29.0084 65.3032 27.2563 64.533 26.3808C64.203 26.0522 63.6526 25.8333 62.9938 25.9425C62.3338 26.0522 62.1133 26.2717 62.6638 26.8185ZM59.2559 36.9991C61.8954 37.218 63.7628 38.0934 65.523 39.0786C66.0716 39.4072 67.8313 40.7204 68.4913 37.4368C68.7111 36.6711 69.0399 34.919 69.0399 34.1526C69.1501 33.496 70.1401 25.9431 66.0716 25.9431C65.4116 26.0528 65.523 26.2717 65.6326 26.4905C65.8512 26.8191 66.0716 27.2569 66.1812 27.9135C66.6214 29.6656 66.2914 30.6508 65.6326 31.3068C64.9726 31.8542 63.7622 31.964 63.5436 30.9782C62.7734 28.2415 61.6743 25.8333 59.4751 26.1619C59.0349 26.2717 59.0349 26.5997 59.2553 27.1471C59.3655 27.6946 59.6955 29.0084 59.8051 30.1027C59.9153 31.5256 59.2553 32.1828 58.2659 32.7303C56.6171 33.7155 52.4384 34.3721 49.4707 33.6064C47.7117 33.0589 47.6021 31.7457 47.6021 31.1983C47.6021 30.6514 47.7123 28.7895 47.6021 28.2427C47.4919 26.9289 47.3823 26.2723 46.5025 26.1625C45.2933 26.0528 45.7335 26.2723 45.6233 27.4757C45.6233 27.4757 45.6233 32.5114 41.8854 32.4017C41.0056 32.4017 40.566 31.5256 40.6762 30.8691C41.0062 29.4461 41.2254 28.1323 41.2254 26.5997C41.1152 25.5053 41.2254 25.1767 38.9166 24.4104C36.2783 23.6441 36.4975 23.6441 35.1787 25.6151C34.2989 26.8191 33.1999 29.0084 32.6507 30.4313C31.6613 33.2772 32.5405 35.1384 33.3101 36.3425C33.6401 37.1088 34.8493 38.2031 36.279 38.9695C39.0268 40.721 41.226 42.1445 43.2049 43.6766C43.8649 44.2241 44.1943 44.3338 44.1943 43.0194C44.3045 38.7506 48.4819 37.6563 48.9215 37.4368C50.5704 36.89 53.7596 36.5614 59.2559 36.9991ZM42.3257 26.1619C42.5455 28.4609 41.8861 30.3216 41.8861 30.6502C41.8861 31.197 42.5455 31.3068 42.9857 31.0879C43.8649 30.5404 44.4141 29.0084 44.4141 26.4899C44.4141 25.9425 44.4141 25.7236 43.4247 25.5047C42.4352 25.3956 42.2154 25.3956 42.3257 26.1619ZM25.835 22.44C26.6046 23.7538 28.1438 21.564 27.924 21.1262C27.8138 20.7976 25.066 21.1262 25.835 22.44ZM99.9327 56.8127H100.592C100.922 56.8127 101.472 56.8127 101.472 57.359C101.472 57.9064 100.922 57.9064 100.592 57.9064H99.9327V56.8127ZM99.3829 59.7677H99.9327V58.3448H100.262C100.702 58.3448 100.922 58.4545 101.362 59.2215L101.58 59.7677H102.351L101.91 59.1117C101.471 58.4545 101.252 58.3448 101.031 58.235C101.8 58.235 102.02 57.6876 102.02 57.2505C102.02 57.0316 101.91 56.8121 101.69 56.5933C101.471 56.3744 101.031 56.3744 100.591 56.3744H99.3817V59.7677H99.3829ZM100.812 54.8417C99.0529 54.8417 97.6239 56.2647 97.6239 58.0162C97.6239 59.7677 99.0529 61.1906 100.812 61.1906C102.571 61.1906 104 59.7677 104 58.0162C104 56.2647 102.571 54.8417 100.812 54.8417ZM100.812 55.3898C102.241 55.3898 103.45 56.5939 103.45 58.0168C103.45 59.4397 102.241 60.645 100.812 60.645C99.3829 60.645 98.1725 59.4397 98.1725 58.0168C98.1725 56.5939 99.3829 55.3898 100.812 55.3898Z" fill="var(--fill-0, #001A69)"/>
</svg>
