<svg xmlns="http://www.w3.org/2000/svg" fill="none" viewBox="0 0 309.881 39.3625" width="310" height="39" preserveAspectRatio="xMidYMid meet" overflow="visible">
<g id="logo">
<path id="Vector" d="M54.7299 35.5358L53.0849 28.2655C51.8115 29.6117 50.4319 30.2583 48.9992 30.2583C48.2033 30.2583 47.5135 30.0429 46.9299 29.5582C46.3462 29.0733 46.0279 28.2655 46.0279 27.1344V17.9259H54.3584V9.63256H46.0279V0.144314H43.0791L35.2395 15.6644V17.9259H38.2279V28.9656C38.2279 31.8201 38.9708 34.1354 40.5097 35.9128C42.0482 37.69 44.3829 38.6054 47.5135 38.6054C49.1585 38.6054 50.5912 38.3357 51.8115 37.7434C53.032 37.1513 53.9869 36.3972 54.6767 35.4818L54.7299 35.5358ZM35.1067 0.191457H33.6094L28.837 9.59396L23.0352 0.191457H21.4443L28.1196 10.9869L24.3863 17.9298H25.9146L35.1067 0.191457ZM19.6141 13.9126V5.36321C19.6141 1.41976 17.4694 0 15.0758 0C12.2783 0 10.6928 1.95585 10.2266 3.94345C9.8537 1.23038 8.0819 0 5.90591 0C3.13941 0 1.70951 2.01907 1.30531 3.88052V0.315534H0V13.9126H1.30531V7.03528C1.30531 4.00667 2.73521 1.23038 5.6573 1.23038C7.3981 1.23038 9.1699 2.23992 9.1699 6.24659V13.9126H10.4752V7.03528C10.4752 4.00667 11.8741 1.23038 14.7649 1.23038C16.661 1.23038 18.3085 2.42929 18.3085 5.71021V13.9126H19.6141ZM70.3556 39.3625C79.9425 39.3625 85.6832 32.6041 85.6832 24.5636C85.6832 16.5234 79.9425 9.76501 70.3556 9.76501C60.7687 9.76501 54.9706 16.5234 54.9706 24.5636C54.9706 32.6041 60.7687 39.3625 70.3556 39.3625ZM70.2982 31.7303C66.3373 31.7303 63.754 28.5256 63.754 24.5636C63.754 20.66 66.3373 17.3973 70.2982 17.3973C74.3168 17.3973 76.9573 20.66 76.9573 24.5636C76.9573 28.5256 74.3168 31.7303 70.2982 31.7303ZM131.609 38.605V21.3015C131.609 15.6496 129.944 9.82332 122.251 9.82332C117.314 9.82332 114.616 12.2119 113.238 14.8921C112.033 11.8043 109.22 9.82332 105.087 9.82332C100.666 9.82332 98.083 12.0956 96.8775 14.6008V10.5225H88.3814V38.605H96.8775V24.6803C96.8775 19.1453 98.9442 17.3973 101.585 17.3973C104.57 17.3973 105.775 19.6115 105.775 23.3985V38.605H114.272V24.5056C114.272 19.087 116.281 17.3973 118.922 17.3973C121.907 17.3973 123.17 19.6698 123.17 23.4568V38.605H131.609ZM149.404 39.3625C158.991 39.3625 164.732 32.6041 164.732 24.5636C164.732 16.5234 158.991 9.76501 149.404 9.76501C139.817 9.76501 134.019 16.5234 134.019 24.5636C134.019 32.6041 139.817 39.3625 149.404 39.3625ZM149.347 31.7303C145.386 31.7303 142.802 28.5256 142.802 24.5636C142.802 20.66 145.386 17.3973 149.347 17.3973C153.365 17.3973 156.006 20.66 156.006 24.5636C156.006 28.5256 153.365 31.7303 149.347 31.7303ZM187.292 10.5225C186.489 10.1729 185.685 10.0563 184.767 10.0563C180.748 10.0563 177.476 12.4452 176.213 15.067V10.5225H167.43V38.605H176.213V27.652C176.213 20.7183 179.37 18.2131 184.307 18.2131C185.341 18.2131 186.087 18.3297 187.292 18.621V10.5225ZM209.936 10.5225C209.132 10.1729 208.328 10.0563 207.41 10.0563C203.391 10.0563 200.119 12.4452 198.856 15.067V10.5225H190.073V38.605H198.856V27.652C198.856 20.7183 202.013 18.2131 206.95 18.2131C207.984 18.2131 208.73 18.3297 209.936 18.621V10.5225ZM225.607 39.3625C235.194 39.3625 240.935 32.6041 240.935 24.5636C240.935 16.5234 235.194 9.76501 225.607 9.76501C216.021 9.76501 210.222 16.5234 210.222 24.5636C210.222 32.6041 216.021 39.3625 225.607 39.3625ZM225.55 31.7303C221.589 31.7303 219.006 28.5256 219.006 24.5636C219.006 20.66 221.589 17.3973 225.55 17.3973C229.568 17.3973 232.209 20.66 232.209 24.5636C232.209 28.5256 229.568 31.7303 225.55 31.7303ZM268.204 38.605H275.322L285.655 10.5225H276.585L271.476 27.2438L266.597 10.5225H258.502L253.623 27.2438L248.513 10.5225H239.443L249.776 38.605H256.895L262.578 20.7183L268.204 38.605ZM300.983 22.0584C296.333 20.4854 293.922 20.1358 293.922 18.0385C293.922 16.4071 295.414 15.5913 297.251 15.5913C299.605 15.5913 300.81 16.9314 300.81 19.2619H309.479C309.479 13.9016 305.747 9.76501 297.194 9.76501C290.19 9.76501 285.311 12.5035 285.311 18.3878C285.311 23.5734 289.099 25.0301 293.864 26.5449C299.088 28.2343 301.27 28.5839 301.27 30.7395C301.27 32.6041 299.777 33.3613 297.653 33.3613C295.07 33.3613 293.233 32.1965 293.233 29.2248H284.622C284.622 35.7502 289.386 39.3625 297.538 39.3625C304.14 39.3625 309.881 36.974 309.881 30.3902C309.881 24.8552 305.862 23.5151 300.983 22.0584Z" fill="var(--fill-0, #007C50)"/>
</g>
</svg>
