<svg preserveAspectRatio="none" width="100%" height="100%" overflow="visible" style="display: block;" viewBox="0 0 40 40" fill="none" xmlns="http://www.w3.org/2000/svg">
<g id="play_circle">
<mask id="mask0_0_324" style="mask-type:alpha" maskUnits="userSpaceOnUse" x="0" y="0" width="40" height="40">
<rect id="Bounding box" width="40" height="40" fill="var(--fill-0, #D9D9D9)"/>
</mask>
<g mask="url(#mask0_0_324)">
<g id="play_circle_2" filter="url(#filter0_dd_0_324)">
<path d="M15.8334 27.4999L27.5001 19.9999L15.8334 12.4999V27.4999ZM20.0001 36.6666C17.6945 36.6666 15.5278 36.2291 13.5001 35.3541C11.4723 34.4791 9.70839 33.2916 8.20839 31.7916C6.70839 30.2916 5.52089 28.5277 4.64589 26.4999C3.77089 24.4721 3.33339 22.3055 3.33339 19.9999C3.33339 17.6943 3.77089 15.5277 4.64589 13.4999C5.52089 11.4721 6.70839 9.70823 8.20839 8.20823C9.70839 6.70823 11.4723 5.52073 13.5001 4.64573C15.5278 3.77073 17.6945 3.33323 20.0001 3.33323C22.3056 3.33323 24.4723 3.77073 26.5001 4.64573C28.5278 5.52073 30.2917 6.70823 31.7917 8.20823C33.2917 9.70823 34.4792 11.4721 35.3542 13.4999C36.2292 15.5277 36.6667 17.6943 36.6667 19.9999C36.6667 22.3055 36.2292 24.4721 35.3542 26.4999C34.4792 28.5277 33.2917 30.2916 31.7917 31.7916C30.2917 33.2916 28.5278 34.4791 26.5001 35.3541C24.4723 36.2291 22.3056 36.6666 20.0001 36.6666Z" fill="var(--fill-0, white)"/>
</g>
</g>
</g>
<defs>
<filter id="filter0_dd_0_324" x="-38.6666" y="-33.6668" width="117.333" height="117.333" filterUnits="userSpaceOnUse" color-interpolation-filters="sRGB">
<feFlood flood-opacity="0" result="BackgroundImageFix"/>
<feColorMatrix in="SourceAlpha" type="matrix" values="0 0 0 0 0 0 0 0 0 0 0 0 0 0 0 0 0 0 127 0" result="hardAlpha"/>
<feOffset dy="2"/>
<feGaussianBlur stdDeviation="6"/>
<feComposite in2="hardAlpha" operator="out"/>
<feColorMatrix type="matrix" values="0 0 0 0 0 0 0 0 0 0 0 0 0 0 0 0 0 0 0.05 0"/>
<feBlend mode="normal" in2="BackgroundImageFix" result="effect1_dropShadow_0_324"/>
<feColorMatrix in="SourceAlpha" type="matrix" values="0 0 0 0 0 0 0 0 0 0 0 0 0 0 0 0 0 0 127 0" result="hardAlpha"/>
<feMorphology radius="10" operator="erode" in="SourceAlpha" result="effect2_dropShadow_0_324"/>
<feOffset dy="5"/>
<feGaussianBlur stdDeviation="26"/>
<feComposite in2="hardAlpha" operator="out"/>
<feColorMatrix type="matrix" values="0 0 0 0 0 0 0 0 0 0 0 0 0 0 0 0 0 0 0.05 0"/>
<feBlend mode="normal" in2="effect1_dropShadow_0_324" result="effect2_dropShadow_0_324"/>
<feBlend mode="normal" in="SourceGraphic" in2="effect2_dropShadow_0_324" result="shape"/>
</filter>
</defs>
</svg>
